<svg xmlns="http://www.w3.org/2000/svg" width="900" height="560" viewBox="0 0 900 560"><rect x="0" y="0" width="100%" height="100%" fill="#ffffff"/><text x="450.0" y="28" font-size="22" text-anchor="middle" fill="#111827">両面固定打牌のシャンテン数と思考時間</text><text x="450.0" y="50" font-size="12" text-anchor="middle" fill="#4b5563">discard_fact / ryanmen_fixed_flag=1 / 思考時間は共通外れ値ルールで抽出</text><rect x="88" y="72" width="784" height="416" fill="#f8fafc" stroke="#cbd5e1"/><line x1="88" y1="488.00" x2="872" y2="488.00" stroke="#e5e7eb" /><text x="78" y="492.00" font-size="11" text-anchor="end" fill="#475569">1856</text><line x1="88" y1="404.80" x2="872" y2="404.80" stroke="#e5e7eb" /><text x="78" y="408.80" font-size="11" text-anchor="end" fill="#475569">2699</text><line x1="88" y1="321.60" x2="872" y2="321.60" stroke="#e5e7eb" /><text x="78" y="325.60" font-size="11" text-anchor="end" fill="#475569">3543</text><line x1="88" y1="238.40" x2="872" y2="238.40" stroke="#e5e7eb" /><text x="78" y="242.40" font-size="11" text-anchor="end" fill="#475569">4386</text><line x1="88" y1="155.20" x2="872" y2="155.20" stroke="#e5e7eb" /><text x="78" y="159.20" font-size="11" text-anchor="end" fill="#475569">5229</text><line x1="88" y1="72.00" x2="872" y2="72.00" stroke="#e5e7eb" /><text x="78" y="76.00" font-size="11" text-anchor="end" fill="#475569">6072</text><line x1="88.00" y1="72" x2="88.00" y2="488" stroke="#eef2f7" /><text x="88.00" y="512" font-size="11" text-anchor="middle" fill="#475569">1</text><line x1="480.00" y1="72" x2="480.00" y2="488" stroke="#eef2f7" /><text x="480.00" y="512" font-size="11" text-anchor="middle" fill="#475569">2</text><line x1="872.00" y1="72" x2="872.00" y2="488" stroke="#eef2f7" /><text x="872.00" y="512" font-size="11" text-anchor="middle" fill="#475569">3</text><line x1="88" y1="488" x2="872" y2="488" stroke="#334155" /><line x1="88" y1="72" x2="88" y2="488" stroke="#334155" /><text x="480.0" y="540" font-size="13" text-anchor="middle" fill="#111827">shanten_after_discard</text><text x="24" y="280.0" font-size="13" text-anchor="middle" fill="#111827" transform="rotate(-90 24 280.0)">thinking_time_ms</text><circle cx="872.00" cy="351.00" r="4.2" fill="#2563eb" fill-opacity="0.72" stroke="#1d4ed8" stroke-width="1"/><circle cx="88.00" cy="236.57" r="4.2" fill="#2563eb" fill-opacity="0.72" stroke="#1d4ed8" stroke-width="1"/><circle cx="872.00" cy="460.39" r="4.2" fill="#2563eb" fill-opacity="0.72" stroke="#1d4ed8" stroke-width="1"/><circle cx="480.00" cy="91.73" r="4.2" fill="#2563eb" fill-opacity="0.72" stroke="#1d4ed8" stroke-width="1"/><circle cx="88.00" cy="468.27" r="4.2" fill="#2563eb" fill-opacity="0.72" stroke="#1d4ed8" stroke-width="1"/><circle cx="480.00" cy="436.74" r="4.2" fill="#2563eb" fill-opacity="0.72" stroke="#1d4ed8" stroke-width="1"/><line x1="88.00" y1="314.14" x2="872.00" y2="367.42" stroke="#dc2626" stroke-width="2.5"/><text x="864" y="90" font-size="12" text-anchor="end" fill="#991b1b">y = -269.98x + 3888.22 / r=-0.159</text></svg>