<svg xmlns="http://www.w3.org/2000/svg" width="860" height="500" viewBox="0 0 860 500"><rect x="0" y="0" width="100%" height="100%" fill="#ffffff"/><text x="430.0" y="28" font-size="22" text-anchor="middle" fill="#111827">両面固定打牌のシャンテン数分布</text><text x="430.0" y="50" font-size="12" text-anchor="middle" fill="#4b5563">discard_fact / ryanmen_fixed_flag=1 / シャンテン値の件数集計</text><rect x="72" y="72" width="760" height="360" fill="#f8fafc" stroke="#cbd5e1"/><line x1="72" y1="432.00" x2="832" y2="432.00" stroke="#e5e7eb" /><text x="62" y="436.00" font-size="11" text-anchor="end" fill="#475569">0</text><line x1="72" y1="342.00" x2="832" y2="342.00" stroke="#e5e7eb" /><text x="62" y="346.00" font-size="11" text-anchor="end" fill="#475569">1</text><line x1="72" y1="252.00" x2="832" y2="252.00" stroke="#e5e7eb" /><text x="62" y="256.00" font-size="11" text-anchor="end" fill="#475569">2</text><line x1="72" y1="162.00" x2="832" y2="162.00" stroke="#e5e7eb" /><text x="62" y="166.00" font-size="11" text-anchor="end" fill="#475569">3</text><line x1="72" y1="72.00" x2="832" y2="72.00" stroke="#e5e7eb" /><text x="62" y="76.00" font-size="11" text-anchor="end" fill="#475569">4</text><rect x="78.00" y="342.00" width="178.00" height="90.00" fill="#0f766e" fill-opacity="0.82" stroke="#115e59"/><text x="167.00" y="452.00" font-size="11" text-anchor="middle" fill="#475569">0</text><text x="167.00" y="336.00" font-size="10" text-anchor="middle" fill="#0f172a">1</text><rect x="268.00" y="252.00" width="178.00" height="180.00" fill="#0f766e" fill-opacity="0.82" stroke="#115e59"/><text x="357.00" y="452.00" font-size="11" text-anchor="middle" fill="#475569">1</text><text x="357.00" y="246.00" font-size="10" text-anchor="middle" fill="#0f172a">2</text><rect x="458.00" y="72.00" width="178.00" height="360.00" fill="#0f766e" fill-opacity="0.82" stroke="#115e59"/><text x="547.00" y="452.00" font-size="11" text-anchor="middle" fill="#475569">2</text><text x="547.00" y="66.00" font-size="10" text-anchor="middle" fill="#0f172a">4</text><rect x="648.00" y="252.00" width="178.00" height="180.00" fill="#0f766e" fill-opacity="0.82" stroke="#115e59"/><text x="737.00" y="452.00" font-size="11" text-anchor="middle" fill="#475569">3</text><text x="737.00" y="246.00" font-size="10" text-anchor="middle" fill="#0f172a">2</text><line x1="72" y1="432" x2="832" y2="432" stroke="#334155" /><line x1="72" y1="72" x2="72" y2="432" stroke="#334155" /><text x="452.0" y="480" font-size="13" text-anchor="middle" fill="#111827">shanten_after_discard</text><text x="24" y="252.0" font-size="13" text-anchor="middle" fill="#111827" transform="rotate(-90 24 252.0)">count</text></svg>